<svg id="Capa_1" data-name="Capa 1" xmlns="http://www.w3.org/2000/svg" viewBox="0 0 551 445"><defs><style>.cls-1{fill:#fefefe;}.cls-2{fill:#fdcb34;}.cls-3{fill:#01339a;}</style></defs><path class="cls-1" d="M306,613.5349q-135.7069,0-271.4138.0955c-3.4165.0045-4.0889-.67-4.0863-4.0848q.1651-218.4156,0-436.8312c-.0026-3.414.6689-4.086,4.0858-4.084q271.4138.16,542.8276,0c3.4154-.002,4.0891.6679,4.0865,4.0833q-.1652,218.4158,0,436.8317c.0026,3.4146-.6693,4.0894-4.0861,4.0849Q441.7072,613.45,306,613.5349ZM302.7283,407.07a2.5787,2.5787,0,0,1,2.069,1.8209c11.4646,22.67,22.9707,45.32,34.3331,68.041,1.5672,3.1338,3.6056,4.1317,7.0353,4.0583,10.1387-.2173,20.2917-.2912,30.4251.0263,4.2656.1336,6.1605-1.3731,7.45-5.3454,13.8018-42.5164,29.2456-84.4113,48.583-124.77,16.3182-34.0574,34.4212-67.064,57.8292-96.9244,2.9459-3.7579,5.9831-5.5668,10.8679-5.3387,8.2963.3872,16.6281-.0474,24.9354.194,3.369.0979,4.3218-1.1429,4.2906-4.265-.1012-10.137-.1974-20.28.0521-30.4118.103-4.1828-.8921-5.6453-5.4739-5.58-20.2818.289-40.57.12-60.856.12q-183.3278.0009-366.6557.004c-3.9907,0-7.9835.0861-11.9715-.0151-2.3018-.0585-3.1806.6715-3.1483,3.1413.1435,10.967.2219,21.9391.024,32.904-.06,3.3464,1.3443,3.795,4.124,3.7452,7.3141-.131,14.6477.2471,21.9429-.146,4.5822-.2468,7.2452,1.41,9.7281,5.1705,21.7016,32.8711,42.0606,66.5183,60.0437,101.5858,19.9708,38.9436,38.1645,78.5578,47.06,121.7668.5768,2.8017,1.739,4.1908,4.9837,4.1307,11.1371-.2063,22.2813-.1488,33.421-.0246,3.0541.0341,4.8108-.98,6.1147-3.8546,5.1429-11.34,10.535-22.5667,15.8256-33.84C291.44,431.1639,297.1084,419.0593,302.7283,407.07Zm70.1148,145.4643c0,5.9828.1182,11.9689-.0509,17.9469-.082,2.9009.6461,4.1861,3.855,4.1028,7.81-.2026,15.6286-.02,23.4429-.0969,6.45-.0633,11.0661-3.3466,13.9674-8.8713,3.0416-5.7921,2.715-11.7694-1.2542-16.9123-2.0314-2.6321-2.1579-4.5815-1.2009-7.5787a15.5655,15.5655,0,0,0-14.1138-20.1415c-7.6364-.2687-15.2926.0618-22.9339-.1234-3.0283-.0735-3.19,1.3286-3.6239,3.83-.75,4.318,2.1844,7.7551,1.9776,11.8939C372.6434,541.8883,372.844,547.2164,372.8431,552.5345Zm69.6413-14.91-1.1079-.3948q0-3.91,0-7.8193c-.003-8.6-.0089-8.3785-8.77-8.6022-3.9035-.1-5.1461,1.2588-4.549,4.8357,1.12,6.711,2.4422,13.3448,2.0883,20.2695-.4147,8.1151.1935,16.2823-.2127,24.3984-.2528,5.0524,2.815,4.2141,5.7235,4.1832,2.8285-.03,6.2185,1.0209,5.7946-4.0739a100.3013,100.3013,0,0,1-.0155-12.9432,8.4267,8.4267,0,0,1,5.8257-7.3723c2.3393-.8539,2.84,2.6836,3.8874,4.3569,3.52,5.6247,6.769,11.4183,10.1385,17.1375.9188,1.56,1.679,3.1763,4.0543,3.0394,3.2134-.1852,6.4456-.0461,10.6021-.0461-6.145-10.5259-11.5589-20.195-17.3932-29.6037-2.4154-3.895-2.395-6.6262.9871-9.9306,4.2746-4.1765,8.0067-8.9075,12.6563-14.1735-3.5278,0-5.732.2933-7.8281-.0579-5.2036-.8719-8.794,1.163-11.8844,5.2393C449.4108,530.1178,445.8374,533.7878,442.4844,537.6247ZM245.39,574.506c7.17.0232,7.1875.0175,5.1409-6.3843-4.6419-14.52-9.3567-29.0175-13.9061-43.5665-.8022-2.5652-1.8225-3.6987-4.7769-3.73-12.02-.1264-12.0766-.2707-15.7488,11.1532-4.1082,12.78-8.0546,25.6119-12.1733,38.3885-.8876,2.7535-.999,4.1967,2.7054,4.2344,7.7117.0784,7.71.2669,10.1076-7.2723.6029-1.8961,1.3176-3.7665,1.77-5.6981.5485-2.3426,1.8741-3.0217,4.2427-3.1239,12.6436-.5451,12.7872-.6574,16.3079,11.0507C240.1908,573.32,241.6834,575.5348,245.39,574.506Zm87.574-.0113c3.32,0,6.6435.0851,9.9608-.0172,7.6028-.2344,13.7245-5.528,15.3769-13.1833,1.4844-6.8772-2.1366-14.0471-8.4332-17.5586-4.5333-2.5282-9.3395-1.6991-14.0943-1.9642-3.1469-.1754-5.6337-1.6659-5.5578-5.0981.073-3.3026,2.2307-4.9969,5.6057-4.9869,3.6525.0109,7.305-.0049,10.9575-.01,6.7852-.0093,6.63-.0107,6.6791-6.6136.0238-3.1564-.7829-4.4314-4.185-4.2257-4.9626.3-9.96-.0329-14.9365.11a15.8076,15.8076,0,0,0,.3218,31.6108,58.8026,58.8026,0,0,1,7.4546.1819c4.0834.6167,6.3062,4.3612,4.6778,7.633-1.22,2.4509-3.4481,3.0341-6.116,3.4773-6.2044,1.0306-11.6916-2.9465-17.7839-2.0855-1.3658.193-3.3818-.5342-3.483,1.7118-.1551,3.4426-1.2274,7.2874.5311,10.2188,1.2354,2.06,4.63.5939,7.05.7821C328.97,574.631,330.9722,574.5084,332.9644,574.4947Zm-222.4589.0059c3.3236,0,6.65.0926,9.97-.0193a16.0875,16.0875,0,0,0,14.81-11.3726c2.1459-6.4264.0793-12.8375-5.2044-17.4481-4.7357-4.1324-10.3308-4.0347-15.996-3.8348-3.7429.132-6.4483-1.3088-6.38-5.2066.0623-3.5538,2.5927-5.0447,6.1514-4.9632,4.65.1063,9.3138-.1526,13.956.07,3.9517.1894,3.4071-2.5256,3.066-4.6392-.3643-2.2568,2.1368-6.2208-3.0675-6.1766-5.3173.0452-10.6365-.0389-15.9526.0573a15.5939,15.5939,0,0,0-14.4559,10.3155c-2.2912,5.9182-.7109,12.1727,3.958,16.87,4.3209,4.3476,9.6762,4.5305,15.2544,4.4415,5.397-.0861,8.4227,2.0962,8.0606,5.8134-.47,4.8263-4.0451,4.9893-7.9656,5.47-5.718.7005-10.6472-3.1978-16.29-2.1241-1.3466.2562-3.3774-.5646-3.4682,1.7183-.1371,3.4484-1.2014,7.2969.5245,10.233,1.2063,2.0523,4.6279.583,7.0492.7718C106.5076,574.6313,108.5113,574.5083,110.5055,574.5006Zm64.5621-21.1493q0-5.2341,0-10.4682c.0023-11.0965.01-11.3683,11.0467-11.0762,4.5652.1209,4.5835-1.9775,4.6428-5.3354.0646-3.66-.238-5.8516-4.9462-5.6662-9.4613.3725-18.9478.1032-28.4239.107-9.8917.004-9.8853.0077-8.8284,9.9347.1215,1.1413-.0883,2.6011,1.5136,2.6625,2.9787.114,6.6688,1.0894,8.8156-.2664,5.7261-3.6166,4.6934.3876,4.7015,3.4747.03,11.2988.0964,22.5991-.0661,33.8957-.0443,3.0779.9578,4.2737,3.992,3.9272a17.6637,17.6637,0,0,1,3.9841-.0013c2.9232.3353,3.7038-1.0072,3.63-3.7425C174.9714,564.9855,175.0809,559.1669,175.0676,553.3513Zm334.0136-32.436q-6.2352,0-12.47,0c-8.9505.0067-10.4189,1.8265-8.6673,10.6074.2094,1.05.3752,2.0617,1.649,2.0593,2.981-.0055,6.694.983,8.8-.41,5.4615-3.613,4.5645.2346,4.5795,3.2226.055,10.9679.2931,21.9453-.0851,32.9-.1662,4.8149,1.8183,5.4357,5.8359,5.318,3.6793-.1077,6.2678-.0076,5.9894-5.1105-.461-8.4509-.2317-16.9454-.117-25.4191.0534-3.9427-1.6727-8.8854.7622-11.5561,2.2935-2.5157,7.2578-.9561,10.9913-.7478,4.4282.2471,3.8553-2.4916,3.741-5.1109-.1192-2.7325,1.1558-6.2089-4.0551-5.8432C520.4091,521.22,514.7345,520.9147,509.0812,520.9153Zm-217.8744,31.82q0-4.7341,0-9.4683c-.0057-11.42-.0061-11.42,11.1647-11.5861a2.957,2.957,0,0,1,.4981.0021c4.75.7485,3.9514-2.6189,3.9126-5.3369-.0379-2.6513.9693-5.6785-3.8538-5.5252-9.7957.3114-19.6082.0909-29.4139.0931-9.197.002-9.9177.8821-8.587,10.2136.1733,1.2157.2336,2.4282,1.7965,2.4517,2.9708.0446,6.3781,1.1179,8.8124-.5022,4.6773-3.1128,4.4364-.25,4.4337,2.95q-.0134,15.6976-.0074,31.3951c-.0019,7.3047-.0011,7.1032,7.2162,7.1769,3.4875.0356,4.1691-1.366,4.0742-4.4239C291.0727,564.3675,291.2007,558.55,291.2068,552.7357Z" transform="translate(-30.5 -168.6304)"/><path class="cls-2" d="M302.7283,407.07c-5.62,11.9891-11.2884,24.0937-16.9671,36.1936-5.2906,11.2731-10.6827,22.5-15.8256,33.84-1.3039,2.875-3.0606,3.8887-6.1147,3.8546-11.14-.1242-22.2839-.1817-33.421.0246-3.2447.06-4.4069-1.329-4.9837-4.1307-8.8954-43.209-27.0891-82.8232-47.06-121.7668-17.9831-35.0675-38.3421-68.7147-60.0437-101.5858-2.4829-3.7609-5.1459-5.4173-9.7281-5.1705-7.2952.3931-14.6288.015-21.9429.146-2.78.05-4.1844-.3988-4.124-3.7452.1979-10.9649.12-21.937-.024-32.904-.0323-2.47.8465-3.2,3.1483-3.1413,3.988.1012,7.9808.0152,11.9715.0151q183.3279-.003,366.6557-.004c20.2859,0,40.5742.1686,60.856-.12,4.5818-.0653,5.5769,1.3972,5.4739,5.58-.25,10.132-.1533,20.2748-.0521,30.4118.0312,3.1221-.9216,4.3629-4.2906,4.265-8.3073-.2414-16.6391.1932-24.9354-.194-4.8848-.2281-7.922,1.5808-10.8679,5.3387-23.408,29.86-41.511,62.867-57.8292,96.9244-19.3374,40.3589-34.7812,82.2538-48.583,124.77-1.2895,3.9723-3.1844,5.479-7.45,5.3454-10.1334-.3175-20.2864-.2436-30.4251-.0263-3.43.0734-5.4681-.9245-7.0353-4.0583-11.3624-22.7212-22.8685-45.3708-34.3331-68.041A2.5787,2.5787,0,0,0,302.7283,407.07ZM431.9254,249.2574c-1.6625-1.0293-3.5194-.5584-5.2708-.5642-12.9112-.0426-25.824-.0933-38.7337.0678-7.38.0921-14.7864-.71-22.1421.496-3.179,1.7566-.3845,3.59.26,4.8936q15.3938,31.13,31.1108,62.1c.7667,1.5193,1.1982,3.36,3.1351,4.5366,5.3362-10.9311,10.581-21.6276,15.7833-32.3448q8.4742-17.4574,16.8718-34.9519C433.7109,251.8848,435.49,249.89,431.9254,249.2574ZM251.15,408.0248a11.3338,11.3338,0,0,0,1.4786-1.5787c9.5326-17.6276,19.0106-35.285,28.604-52.88,1.32-2.4216.84-4.4-.3893-6.515-5.1462-8.8523-9.9135-17.9338-14.7969-26.9127-5.0934-9.3652-9.9-18.9474-14.88-28.4039-6.5445-12.4272-13.0409-24.8807-19.95-37.125-2.5795-4.5716-5.1853-5.3821-9.6308-5.33-15.13.1769-30.263.0644-45.3948.0916-5.87.0105-5.8787.0509-2.9709,5.1278,19.5272,34.0928,39.1337,68.144,56.2214,103.5578,3.3834,7.0121,6.7244,14.0414,9.8646,21.179C243.4064,388.555,247.0564,398.0534,251.15,408.0248Zm21.83-158.684c28.0091,54.3755,53.1921,108.9195,83.3577,162.0457,7.7585-15.96,15.0025-30.844,22.2261-45.7382,1.1492-2.3694.24-4.4928-.8884-6.6064q-28.3047-53.0226-56.5327-106.086c-1.4742-2.7782-3.4028-3.6714-6.3712-3.6289-7.81.1118-15.623.02-23.4348.0146C285.5832,249.3375,279.8294,249.3408,272.98,249.3408Z" transform="translate(-30.5 -168.6304)"/><path class="cls-2" d="M372.8436,552.5345c0-5.3181-.2-10.6462.0648-15.951.2068-4.1388-2.7275-7.5759-1.9776-11.8939.4344-2.5009.5956-3.903,3.6239-3.83,7.6413.1852,15.2975-.1453,22.9339.1234a15.5655,15.5655,0,0,1,14.1138,20.1415c-.957,2.9972-.83,4.9466,1.2009,7.5787,3.9692,5.1429,4.2958,11.12,1.2542,16.9123-2.9013,5.5247-7.5173,8.808-13.9674,8.8713-7.8143.0767-15.6332-.1057-23.4429.0969-3.2089.0833-3.937-1.2019-3.855-4.1028C372.9613,564.5034,372.8431,558.5173,372.8436,552.5345Zm20.02,11.2071c1.99,0,3.98.0356,5.9689-.0078,3.5245-.0769,5.6954-1.8621,5.8287-5.4035.1366-3.6284-2.1082-5.4867-5.5437-5.6845-3.4707-.2-6.98.161-10.4371-.1375-3.8057-.3286-4.8321,1.1588-4.7133,4.8161.2082,6.4105-.0051,6.4174,6.4094,6.421Q391.62,563.7461,392.8632,563.7416Zm-2.3892-21.9384c2.3435,0,4.0059.1178,5.6455-.0254,3.049-.2664,4.8325-1.8873,4.9108-5.0847.0808-3.3056-1.7518-4.8442-4.8433-5-2.4722-.1247-4.9778.177-7.4283-.0861-3.592-.3856-4.5722.7815-4.9115,4.5523C383.26,542.6856,387.1077,542.0623,390.474,541.8032Z" transform="translate(-30.5 -168.6304)"/><path class="cls-2" d="M442.4844,537.6247c3.353-3.8369,6.9264-7.5069,9.9973-11.5576,3.09-4.0763,6.6808-6.1112,11.8844-5.2393,2.0961.3512,4.3.0579,7.8281.0579-4.65,5.266-8.3817,9.997-12.6563,14.1735-3.3821,3.3044-3.4025,6.0356-.9871,9.9306,5.8343,9.4087,11.2482,19.0778,17.3932,29.6037-4.1565,0-7.3887-.1391-10.6021.0461-2.3753.1369-3.1355-1.48-4.0543-3.0394-3.37-5.7192-6.6187-11.5128-10.1385-17.1375-1.0472-1.6733-1.5481-5.2108-3.8874-4.3569a8.4267,8.4267,0,0,0-5.8257,7.3723,100.3013,100.3013,0,0,0,.0155,12.9432c.4239,5.0948-2.9661,4.0439-5.7946,4.0739-2.9085.0309-5.9763.8692-5.7235-4.1832.4062-8.1161-.202-16.2833.2127-24.3984.3539-6.9247-.9679-13.5585-2.0883-20.2695-.5971-3.5769.6455-4.9353,4.549-4.8357,8.7607.2237,8.7666.002,8.77,8.6022q.0014,3.91,0,7.8193Z" transform="translate(-30.5 -168.6304)"/><path class="cls-2" d="M245.39,574.506c-3.707,1.0288-5.2-1.1863-6.3308-4.9481-3.5207-11.7081-3.6643-11.5958-16.3079-11.0507-2.3686.1022-3.6942.7813-4.2427,3.1239-.4522,1.9316-1.1669,3.802-1.77,5.6981-2.3972,7.5392-2.3959,7.3507-10.1076,7.2723-3.7044-.0377-3.593-1.4809-2.7054-4.2344,4.1187-12.7766,8.0651-25.6086,12.1733-38.3885,3.6722-11.4239,3.7287-11.28,15.7488-11.1532,2.9544.0311,3.9747,1.1646,4.7769,3.73,4.5494,14.549,9.2642,29.0463,13.9061,43.5665C252.5779,574.5235,252.56,574.5292,245.39,574.506Zm-17.3459-40.1334-1.0235-.0641c-1.1584,3.7153-2.3379,7.4242-3.46,11.15-.2854.9473-.4714,2.1282.9771,2.2093,2.2661.1268,4.9442.99,6.6841-.4333,1.4049-1.1492-.2377-3.32-.6592-4.9773C229.884,539.5883,228.9,536.9968,228.0445,534.3726Z" transform="translate(-30.5 -168.6304)"/><path class="cls-2" d="M332.9644,574.5015c-1.9922.0069-3.9941.13-5.9743-.0245-2.42-.1882-5.8147,1.2774-7.05-.7821-1.7585-2.9314-.6862-6.7762-.5311-10.2188.1012-2.246,2.1172-1.5188,3.483-1.7118,6.0923-.861,11.5795,3.1161,17.7839,2.0855,2.6679-.4432,4.896-1.0264,6.116-3.4773,1.6284-3.2718-.5944-7.0163-4.6778-7.633a58.8026,58.8026,0,0,0-7.4546-.1819,15.8076,15.8076,0,0,1-.3218-31.6108c4.9766-.1424,9.9739.1906,14.9365-.11,3.4021-.2057,4.2088,1.0693,4.185,4.2257-.05,6.6029.1061,6.6043-6.6791,6.6136-3.6525.0049-7.305.0207-10.9575.01-3.375-.01-5.5327,1.6843-5.6057,4.9869-.0759,3.4322,2.4109,4.9227,5.5578,5.0981,4.7548.2651,9.561-.564,14.0943,1.9642,6.2966,3.5115,9.9176,10.6814,8.4332,17.5586-1.6524,7.6553-7.7741,12.9489-15.3769,13.1833C339.6079,574.58,336.2848,574.4947,332.9644,574.5015Z" transform="translate(-30.5 -168.6304)"/><path class="cls-2" d="M110.5055,574.5044c-1.9942.0039-3.9979.1269-5.98-.0276-2.4213-.1888-5.8429,1.28-7.0492-.7718-1.7259-2.9361-.6616-6.7846-.5245-10.233.0908-2.2829,2.1216-1.4621,3.4682-1.7183,5.6429-1.0737,10.5721,2.8246,16.29,2.1241,3.9205-.48,7.4956-.6433,7.9656-5.47.3621-3.7172-2.6636-5.8995-8.0606-5.8134-5.5782.089-10.9335-.0939-15.2544-4.4415-4.6689-4.6978-6.2492-10.9523-3.958-16.87a15.5939,15.5939,0,0,1,14.4559-10.3155c5.3161-.0962,10.6353-.0121,15.9526-.0573,5.2043-.0442,2.7032,3.92,3.0675,6.1766.3411,2.1136.8857,4.8286-3.066,4.6392-4.6422-.2224-9.3055.0365-13.956-.07-3.5587-.0815-6.0891,1.4094-6.1514,4.9632-.0683,3.8978,2.6371,5.3386,6.38,5.2066,5.6652-.2,11.26-.2976,15.996,3.8348,5.2837,4.6106,7.35,11.0217,5.2044,17.4481a16.0875,16.0875,0,0,1-14.81,11.3726C117.1558,574.5932,113.8291,574.5006,110.5055,574.5044Z" transform="translate(-30.5 -168.6304)"/><path class="cls-2" d="M175.0743,553.3513c.0066,5.8156-.1029,11.6342.0547,17.4456.0742,2.7353-.7064,4.0778-3.63,3.7425a17.6637,17.6637,0,0,0-3.9841.0013c-3.0342.3465-4.0363-.8493-3.992-3.9272.1625-11.2966.0959-22.5969.0661-33.8957-.0081-3.0871,1.0246-7.0913-4.7015-3.4747-2.1468,1.3558-5.8369.38-8.8156.2664-1.6019-.0614-1.3921-1.5212-1.5136-2.6625-1.0569-9.927-1.0633-9.9307,8.8284-9.9347,9.4761-.0038,18.9626.2655,28.4239-.107,4.7082-.1854,5.0108,2.0059,4.9462,5.6662-.0593,3.3579-.0776,5.4563-4.6428,5.3354-11.037-.2921-11.0444-.02-11.0467,11.0762Q175.0667,548.1172,175.0743,553.3513Z" transform="translate(-30.5 -168.6304)"/><path class="cls-2" d="M509.0812,520.915c5.6533,0,11.3279.3052,16.9534-.09,5.2109-.3657,3.9359,3.1107,4.0551,5.8432.1143,2.6193.6872,5.358-3.741,5.1109-3.7335-.2083-8.6978-1.7679-10.9913.7478-2.4349,2.6707-.7088,7.6134-.7622,11.5561-.1147,8.4737-.344,16.9682.117,25.4191.2784,5.1029-2.31,5.0028-5.9894,5.1105-4.0176.1177-6.0021-.5031-5.8359-5.318.3782-10.9549.14-21.9323.0851-32.9-.015-2.988.882-6.8356-4.5795-3.2226-2.1059,1.3933-5.8189.4048-8.8.41-1.2738.0024-1.44-1.01-1.649-2.0593-1.7516-8.7809-.2832-10.6007,8.6673-10.6074Q502.8461,520.9111,509.0812,520.915Z" transform="translate(-30.5 -168.6304)"/><path class="cls-2" d="M291.2037,552.7357c-.003,5.8139-.131,11.6318.0492,17.44.0949,3.0579-.5867,4.46-4.0742,4.4239-7.2173-.0737-7.2181.1278-7.2162-7.1769q.0041-15.6975.0074-31.3951c.0027-3.2.2436-6.063-4.4337-2.95-2.4343,1.62-5.8416.5468-8.8124.5022-1.5629-.0235-1.6232-1.236-1.7965-2.4517-1.3307-9.3315-.61-10.2116,8.587-10.2136,9.8057-.0022,19.6182.2183,29.4139-.0931,4.8231-.1533,3.8159,2.8739,3.8538,5.5252.0388,2.718.8376,6.0854-3.9126,5.3369a2.957,2.957,0,0,0-.4981-.0021c-11.1708.1663-11.17.1664-11.1647,11.5861Q291.209,548.0015,291.2037,552.7357Z" transform="translate(-30.5 -168.6304)"/><path class="cls-3" d="M251.15,408.0248c-4.0935-9.9714-7.7435-19.47-11.8435-28.7888-3.14-7.1376-6.4812-14.1669-9.8646-21.179-17.0877-35.4138-36.6942-69.465-56.2214-103.5578-2.9078-5.0769-2.8993-5.1173,2.9709-5.1278,15.1318-.0272,30.2649.0853,45.3948-.0916,4.4455-.0519,7.0513.7586,9.6308,5.33,6.9088,12.2443,13.4052,24.6978,19.95,37.125,4.98,9.4565,9.7863,19.0387,14.88,28.4039,4.8834,8.9789,9.6507,18.06,14.7969,26.9127,1.23,2.1152,1.71,4.0934.3893,6.515-9.5934,17.5945-19.0714,35.2519-28.604,52.88A11.3338,11.3338,0,0,1,251.15,408.0248Z" transform="translate(-30.5 -168.6304)"/><path class="cls-3" d="M272.98,249.3408c6.8491,0,12.6029-.0033,18.3567.0008,7.8118.0057,15.6247.0972,23.4348-.0146,2.9684-.0425,4.897.8507,6.3712,3.6289q28.1721,53.093,56.5327,106.086c1.1283,2.1136,2.0376,4.237.8884,6.6064-7.2236,14.8942-14.4676,29.7785-22.2261,45.7382C326.1724,358.26,300.9894,303.7163,272.98,249.3408Z" transform="translate(-30.5 -168.6304)"/><path class="cls-3" d="M431.9254,249.2574c3.5645.6326,1.7855,2.6274,1.0143,4.2335q-8.3994,17.4935-16.8718,34.9519c-5.2023,10.7172-10.4471,21.4137-15.7833,32.3448-1.9369-1.1771-2.3684-3.0173-3.1351-4.5366q-15.6453-31.0053-31.1108-62.1c-.6444-1.3032-3.4389-3.137-.2674-4.8937Z" transform="translate(-30.5 -168.6304)"/><path class="cls-1" d="M431.9254,249.2574l-66.1541,0c7.3632-1.2056,14.7695-.4038,22.15-.4959,12.91-.1611,25.8225-.11,38.7337-.0678C428.406,248.699,430.2629,248.2281,431.9254,249.2574Z" transform="translate(-30.5 -168.6304)"/><path class="cls-1" d="M392.8632,563.7435q-1.2437.003-2.4871.0019c-6.4145-.0036-6.2012-.01-6.4094-6.421-.1188-3.6573.9076-5.1447,4.7133-4.8161,3.4568.2985,6.9664-.0622,10.4371.1375,3.4355.1978,5.68,2.0561,5.5437,5.6845-.1333,3.5414-2.3042,5.3266-5.8287,5.4035C396.8433,563.7772,394.8529,563.7416,392.8632,563.7435Z" transform="translate(-30.5 -168.6304)"/><path class="cls-1" d="M390.474,541.8032c-3.3663.2591-7.2142.8824-6.6268-5.6441.3393-3.7708,1.32-4.9379,4.9115-4.5523,2.4505.2631,4.9561-.0386,7.4283.0861,3.0915.156,4.9241,1.6946,4.8433,5-.0783,3.1974-1.8618,4.8183-4.9108,5.0847C394.48,541.921,392.8175,541.8032,390.474,541.8032Z" transform="translate(-30.5 -168.6304)"/><path class="cls-1" d="M228.0445,534.3726c.8552,2.6242,1.8395,5.2157,2.5182,7.8848.4215,1.6574,2.0641,3.8281.6592,4.9773-1.74,1.4234-4.418.56-6.6841.4333-1.4485-.0811-1.2625-1.262-.9771-2.2093,1.1224-3.726,2.3019-7.4349,3.46-11.15Z" transform="translate(-30.5 -168.6304)"/></svg>